#!OML:ASF E:\acrobat2\Project_11_07_03\Capture day 1\Session 1\Acrobat.ASF
:FULLY-SPECIFIED
:DEGREES
460
root 10.4246 27.641 23.1569 8.29325 -0.786828 -0.298533
lowerback 4.53499 -1.35225 -5.2939
upperback 3.33586 -1.96196 -3.79943
thorax 0.943668 -1.02885 -0.876616
lowerneck 2.18026 1.38872 -2.48686
upperneck 21.237 1.07316 4.98005
head 6.00584 0.634962 2.05046
rclavicle 1.98785e-014 3.18055e-014
rhumerus -61.3135 -0.658596 -77.6938
rradius 43.5784
rwrist 7.5103
rhand -7.1457 -14.5118
rfingers 7.12502
rthumb 18.7307 -43.63
lclavicle 1.98785e-014 3.18055e-014
lhumerus -16.7785 -8.70373 73.5263
lradius 71.3239
lwrist 11.4237
lhand -46.0525 -48.8997
lfingers 7.12502
lthumb -18.7962 -19.7878
rfemur -30.0481 -6.42526 20.587
rtibia 33.1358
rfoot -12.5332 -3.87013
rtoes -15.2477
lfemur -12.6863 -13.4303 -15.8671
ltibia 25.3495
lfoot -18.0161 -21.766
ltoes 31.401
461
root 10.433 27.6266 23.0603 8.22057 -0.491014 0.031195
lowerback 4.70568 -1.34931 -5.10359
upperback 3.37054 -1.96293 -3.86069
thorax 0.874957 -1.02473 -1.04114
lowerneck 2.88874 1.39835 -1.87611
upperneck 20.5342 1.18153 4.38159
head 5.6723 0.684615 1.74505
rclavicle -9.93923e-015 1.11319e-014
rhumerus -61.5573 -0.711182 -77.4582
rradius 43.3898
rwrist 7.48351
rhand -7.06806 -14.307
rfingers 7.12502
rthumb 18.8054 -43.418
lclavicle -9.93923e-015 1.11319e-014
lhumerus -16.905 -8.69537 74.0055
lradius 71.6218
lwrist 11.44
lhand -46.2068 -49.321
lfingers 7.12502
lthumb -18.9446 -20.2236
rfemur -29.6131 -5.99651 20.2883
rtibia 33.1693
rfoot -11.664 -4.49171
rtoes -14.9227
lfemur -12.954 -13.2112 -15.888
ltibia 26.3483
lfoot -15.4242 -22.5175
ltoes 35.628
462
root 10.444 27.6097 22.9657 8.12918 -0.214928 0.397057
lowerback 4.84881 -1.33637 -4.94534
upperback 3.40847 -1.94885 -3.89895
thorax 0.826813 -1.01426 -1.16571
lowerneck 3.37524 1.36752 -1.4095
upperneck 20.1782 1.22788 3.8204
head 5.48822 0.701219 1.48245
rclavicle -1.55052e-014 1.59028e-014
rhumerus -61.6324 -0.574738 -77.285
rradius 43.0948
rwrist 7.49505
rhand -7.12215 -14.1295
rfingers 7.12502
rthumb 18.7533 -43.2455
lclavicle -1.55052e-014 1.59028e-014
lhumerus -17.1001 -8.63578 74.5629
lradius 71.921
lwrist 11.4279
lhand -46.3211 -49.6938
lfingers 7.12502
lthumb -19.0545 -20.6071
rfemur -29.2082 -5.63285 19.9676
rtibia 33.5012
rfoot -11.1722 -4.95802
rtoes -14.9324
lfemur -13.3466 -13.0141 -15.9401
ltibia 27.6194
lfoot -12.5662 -22.9674
ltoes 39.1857
463
root 10.4587 27.5921 22.8742 8.00465 0.0408924 0.737409
lowerback 4.96213 -1.31256 -4.75575
upperback 3.46736 -1.91526 -3.90347
thorax 0.816832 -0.994673 -1.27504
lowerneck 3.66824 1.30421 -1.17154
upperneck 20.0514 1.21275 3.37764
head 5.40712 0.682761 1.29894
rclavicle -8.74653e-015 -2.38542e-014
rhumerus -61.5245 -0.300586 -77.153
rradius 42.6962
rwrist 7.56191
rhand -7.22754 -13.9858
rfingers 7.12502
rthumb 18.652 -43.1116
lclavicle -8.74653e-015 -2.38542e-014
lhumerus -17.3448 -8.51939 75.1946
lradius 72.2062
lwrist 11.3589
lhand -46.4157 -50.0219
lfingers 7.12502
lthumb -19.1455 -20.9443
rfemur -28.7854 -5.37858 19.7008
rtibia 33.9438
rfoot -11.0946 -5.275
rtoes -15.422
lfemur -13.8314 -12.8145 -15.976
ltibia 29.1639
lfoot -9.44713 -23.0665
ltoes 42.1206
464
root 10.4774 27.5756 22.7854 7.84955 0.28046 0.971933
lowerback 5.03917 -1.28314 -4.4634
upperback 3.55936 -1.86544 -3.85207
thorax 0.859496 -0.966774 -1.38628
lowerneck 3.79398 1.21667 -1.1877
upperneck 20.0758 1.144 3.08022
head 5.3985 0.631444 1.20534
rclavicle -1.66979e-014 -4.6118e-014
rhumerus -61.218 0.0685121 -77.028
rradius 42.2131
rwrist 7.72595
rhand -7.26722 -13.9093
rfingers 7.12502
rthumb 18.6138 -43.0387
lclavicle -1.66979e-014 -4.6118e-014
lhumerus -17.6293 -8.33805 75.8993
lradius 72.4731
lwrist 11.2263
lhand -46.5121 -50.3446
lfingers 7.12502
lthumb -19.2382 -21.2761
rfemur -28.3211 -5.23404 19.5786
rtibia 34.3332
rfoot -11.3845 -5.49562
rtoes -16.4732
lfemur -14.4126 -12.5791 -15.9072
ltibia 30.9789
lfoot -6.10034 -22.7576
ltoes 44.6108
465
root 10.4989 27.5619 22.6968 7.6895 0.501325 1.05343
lowerback 5.08127 -1.25097 -4.05523
upperback 3.67603 -1.8039 -3.72524
thorax 0.945809 -0.932206 -1.48627
lowerneck 3.76911 1.10982 -1.41556
upperneck 20.2077 1.03341 2.89832
head 5.44669 0.553114 1.18439
rclavicle 5.56597e-015 3.65764e-014
rhumerus -60.7119 0.512628 -76.8827
rradius 41.6617
rwrist 8.03014
rhand -7.1756 -13.903
rfingers 7.12502
rthumb 18.7019 -43.024
lclavicle 5.56597e-015 3.65764e-014
lhumerus -17.9566 -8.09272 76.6708
lradius 72.7305
lwrist 11.0377
lhand -46.6173 -50.6803
lfingers 7.12502
lthumb -19.3393 -21.6219
rfemur -27.8262 -5.12361 19.6405
rtibia 34.5998
rfoot -11.9818 -5.6674
rtoes -17.777
lfemur -15.1333 -12.2716 -15.6595
ltibia 33.0435
lfoot -2.59877 -21.9955
ltoes 46.8123
466
root 10.5205 27.5521 22.6052 7.55088 0.706098 0.99576
lowerback 5.09523 -1.21633 -3.57537
upperback 3.80625 -1.73458 -3.52725
thorax 1.06216 -0.892992 -1.5544
lowerneck 3.77895 0.999111 -1.61071
upperneck 20.2311 0.925731 2.67439
head 5.45569 0.475458 1.14349
rclavicle 1.47101e-014 3.18055e-014
rhumerus -60.019 1.00723 -76.7064
rradius 41.0608
rwrist 8.49896
rhand -6.8988 -13.9343
rfingers 7.12502
rthumb 18.9681 -43.0294
lclavicle 1.47101e-014 3.18055e-014
lhumerus -18.3263 -7.79827 77.4839
lradius 73.0032
lwrist 10.8152
lhand -46.7276 -51.0224
lfingers 7.12502
lthumb -19.4454 -21.9748
rfemur -27.3267 -4.98366 19.8667
rtibia 34.7861
rfoot -12.8609 -5.81494
rtoes -18.8329
lfemur -16.0348 -11.8832 -15.2236
ltibia 35.3062
lfoot 0.660436 -20.7975
ltoes 48.2741
467
root 10.5405 27.5468 22.5088 7.45637 0.906778 0.829092
lowerback 5.09329 -1.18237 -3.06501
upperback 3.92843 -1.66576 -3.27328
thorax 1.18044 -0.853264 -1.58238
lowerneck 3.82432 0.882252 -1.71085
upperneck 20.1611 0.819406 2.3845
head 5.43048 0.401105 1.06489
rclavicle 1.07344e-014 2.54444e-014
rhumerus -59.1867 1.53854 -76.5026
rradius 40.4431
rwrist 9.13023
rhand -6.43477 -13.9701
rfingers 7.12502
rthumb 19.4144 -43.0209
lclavicle 1.07344e-014 2.54444e-014
lhumerus -18.7643 -7.47462 78.3043
lradius 73.3312
lwrist 10.5868
lhand -46.8368 -51.3391
lfingers 7.12502
lthumb -19.5504 -22.302
rfemur -26.8396 -4.7819 20.222
rtibia 34.9212
rfoot -13.9709 -5.96616
rtoes -19.3438
lfemur -17.1327 -11.4346 -14.6198
ltibia 37.6792
lfoot 3.53871 -19.3722
ltoes 49.0638
468
root 10.557 27.546 22.4099 7.3929 1.10707 0.568436
lowerback 5.0958 -1.13824 -2.53932
upperback 4.02608 -1.58552 -2.98028
thorax 1.27234 -0.806988 -1.57892
lowerneck 3.89985 0.749215 -1.70556
upperneck 20.0492 0.696836 2.04625
head 5.38801 0.323624 0.952514
rclavicle 1.07344e-014 1.82882e-014
rhumerus -58.2917 2.06321 -76.2729
rradius 39.8338
rwrist 9.9182
rhand -5.88253 -13.9908
rfingers 7.12502
rthumb 19.9453 -42.9872
lclavicle 1.07344e-014 1.82882e-014
lhumerus -19.2786 -7.18766 79.106
lradius 73.712
lwrist 10.3958
lhand -46.9314 -51.6246
lfingers 7.12502
lthumb -19.6413 -22.5968
rfemur -26.3 -4.4827 20.6865
rtibia 34.9514
rfoot -15.3126 -6.12275
rtoes -19.5046
lfemur -18.3503 -10.9361 -13.873
ltibia 40.0262
lfoot 6.06096 -17.9575
ltoes 49.3827
469
root 10.5694 27.5487 22.3121 7.3618 1.28433 0.215743
lowerback 5.06652 -1.06858 -1.98411
upperback 4.09455 -1.47133 -2.66563
thorax 1.35281 -0.742703 -1.57151
lowerneck 3.99598 0.594645 -1.6218
upperneck 19.9418 0.544446 1.70065
head 5.34385 0.237012 0.823918
rclavicle -9.54166e-015 -2.94201e-014
rhumerus -57.3876 2.5317 -76.0172
rradius 39.2584
rwrist 10.8354
rhand -5.32813 -14.0128
rfingers 7.12502
rthumb 20.4781 -42.9528
lclavicle -9.54166e-015 -2.94201e-014
lhumerus -19.8397 -6.9914 79.871
lradius 74.0965
lwrist 10.3023
lhand -46.9816 -51.941
lfingers 7.12502
lthumb -19.6896 -22.9182
rfemur -25.6635 -4.05669 21.2539
rtibia 34.7951
rfoot -16.8215 -6.30932
rtoes -19.4656
lfemur -19.6149 -10.3744 -13.0033
ltibia 42.2256
lfoot 8.25711 -16.7325
ltoes 49.442
